name Walk4.mot
datacolumns 19
datarows 12
range 2.22500000 2.23600000
endheader

                time	   L_ground_force_vx	   L_ground_force_vy	   L_ground_force_vz	   L_ground_force_px	   L_ground_force_py	   L_ground_force_pz	   R_ground_force_vx	   R_ground_force_vy	   R_ground_force_vz	   R_ground_force_px	   R_ground_force_py	   R_ground_force_pz	   L_ground_torque_x	   L_ground_torque_y	   L_ground_torque_z	   R_ground_torque_x	   R_ground_torque_y	   R_ground_torque_z	
          2.22500000	         27.06094290	        942.08381376	         63.21231539	         -0.25169296	          0.00000000	         -0.04884599	          0.00000000	          0.00000000	          0.00000000	          0.00000000	          0.00000000	          0.00000000	          0.00000000	         -0.80284263	          0.00000000	          0.00000000	          0.00000000	          0.00000000	
          2.22600000	         27.65136016	        942.64703253	         63.26116006	         -0.25144651	          0.00000000	         -0.04888744	          0.00000000	          0.00000000	          0.00000000	          0.00000000	          0.00000000	          0.00000000	          0.00000000	         -0.77670656	          0.00000000	          0.00000000	          0.00000000	          0.00000000	
          2.22700000	         28.23337494	        943.15945441	         63.30632834	         -0.25118543	          0.00000000	         -0.04895191	          0.00000000	          0.00000000	          0.00000000	          0.00000000	          0.00000000	          0.00000000	          0.00000000	         -0.74843215	          0.00000000	          0.00000000	          0.00000000	          0.00000000	
          2.22800000	         28.81042002	        943.65122230	         63.33950709	         -0.25091855	          0.00000000	         -0.04903010	          0.00000000	          0.00000000	          0.00000000	          0.00000000	          0.00000000	          0.00000000	          0.00000000	         -0.72579463	          0.00000000	          0.00000000	          0.00000000	          0.00000000	
          2.22900000	         29.38472351	        944.17941712	         63.35856570	         -0.25065761	          0.00000000	         -0.04911162	          0.00000000	          0.00000000	          0.00000000	          0.00000000	          0.00000000	          0.00000000	          0.00000000	         -0.71771139	          0.00000000	          0.00000000	          0.00000000	          0.00000000	
          2.23000000	         29.95780012	        944.77899853	         63.36637783	         -0.25040961	          0.00000000	         -0.04918022	          0.00000000	          0.00000000	          0.00000000	          0.00000000	          0.00000000	          0.00000000	          0.00000000	         -0.72744584	          0.00000000	          0.00000000	          0.00000000	          0.00000000	
          2.23100000	         30.53284882	        945.42670424	         63.36720704	         -0.25017871	          0.00000000	         -0.04922362	          0.00000000	          0.00000000	          0.00000000	          0.00000000	          0.00000000	          0.00000000	          0.00000000	         -0.75159389	          0.00000000	          0.00000000	          0.00000000	          0.00000000	
          2.23200000	         31.11313814	        946.05762270	         63.36226198	         -0.24996684	          0.00000000	         -0.04925012	          0.00000000	          0.00000000	          0.00000000	          0.00000000	          0.00000000	          0.00000000	          0.00000000	         -0.78511794	          0.00000000	          0.00000000	          0.00000000	          0.00000000	
          2.23300000	         31.69867740	        946.62923599	         63.34899504	         -0.24976798	          0.00000000	         -0.04927880	          0.00000000	          0.00000000	          0.00000000	          0.00000000	          0.00000000	          0.00000000	          0.00000000	         -0.82393086	          0.00000000	          0.00000000	          0.00000000	          0.00000000	
          2.23400000	         32.28995835	        947.16727512	         63.32489017	         -0.24956815	          0.00000000	         -0.04932058	          0.00000000	          0.00000000	          0.00000000	          0.00000000	          0.00000000	          0.00000000	          0.00000000	         -0.86098058	          0.00000000	          0.00000000	          0.00000000	          0.00000000	
          2.23500000	         32.89344854	        947.73584170	         63.29271554	         -0.24935106	          0.00000000	         -0.04938146	          0.00000000	          0.00000000	          0.00000000	          0.00000000	          0.00000000	          0.00000000	          0.00000000	         -0.88487077	          0.00000000	          0.00000000	          0.00000000	          0.00000000	
          2.23600000	         33.51421111	        948.35516461	         63.26363362	         -0.24910582	          0.00000000	         -0.04946813	          0.00000000	          0.00000000	          0.00000000	          0.00000000	          0.00000000	          0.00000000	          0.00000000	         -0.88607901	          0.00000000	          0.00000000	          0.00000000	          0.00000000	
